<?xml version="1.0" encoding="UTF-8" standalone="no"?>
<!-- Created with Inkscape (http://www.inkscape.org/) -->

<svg
   xmlns:dc="http://purl.org/dc/elements/1.1/"
   xmlns:cc="http://creativecommons.org/ns#"
   xmlns:rdf="http://www.w3.org/1999/02/22-rdf-syntax-ns#"
   xmlns:svg="http://www.w3.org/2000/svg"
   xmlns="http://www.w3.org/2000/svg"
   xmlns:sodipodi="http://sodipodi.sourceforge.net/DTD/sodipodi-0.dtd"
   xmlns:inkscape="http://www.inkscape.org/namespaces/inkscape"
   version="1.1"
   id="svg80"
   width="1575.1323"
   height="1575.7571"
   viewBox="0 0 1575.1323 1575.7571"
   sodipodi:docname="mnu-icon-1.svg"
   inkscape:version="0.92.4 (unknown)">
  <path
     d="m 404.5,1574.7893 c -78.8649,-7.5817 -143.5972,-66.2523 -161.1956,-146.1007 -2.2607,-10.2573 -2.2748,-10.832 -2.7883,-113.3096 l -0.5161,-103 -40,-0.5786 c -42.6372,-0.6167 -47.181,-1.0567 -67.4181,-6.5289 C 89.7192,1193.6812 49.9923,1163.8126 26.6441,1125.6222 15.0517,1106.6606 6.2004,1083.4321 2.204,1061.4836 L 0,1049.379 v -201.49993 -201.5 L 2.2856,634.47693 C 16.972,557.99982 74.6358,501.0236 151.4226,487.11821 157.7746,485.96792 170.3779,485.41109 200,484.972 l 40,-0.59293 0.5344,-164 0.5343,-164 2.2706,-10 c 4.889,-21.53251 14.1978,-44.54189 24.6784,-61.000002 27.4417,-43.092566 70.6812,-72.483271 121.715,-82.7320858 L 401,0.38424029 777.99999,0.07846929 c 268.89871,-0.218094 380.15411,0.0096 388.00001,0.794082 62.4321,6.24237311 116.2875,43.03003171 144.9548,99.01599671 9.1164,17.803912 14.3015,33.587102 17.5726,53.490522 1.9046,11.58881 1.9722,17.47395 1.9724,171.75 l 2e-4,159.75 37.75,0.0195 c 26.7851,0.0138 40.8395,0.43082 48.3864,1.43551 81.7455,10.88257 144.4001,72.93233 157.0609,155.54497 1.9198,12.52655 1.9102,400.56675 -0.01,412.99995 -10.4184,67.4525 -54.1803,122.1338 -116.3228,145.3476 -26.3105,9.8285 -40.3014,11.6524 -89.3842,11.6524 h -37.4174 l -0.2907,102.75 -0.2906,102.75 -2.3016,10.8786 c -10.156,48.0026 -38.0663,89.7238 -77.6798,116.1184 -26.2322,17.4786 -54.3981,27.5728 -85,30.4626 -13.3012,1.256 -747.4166,1.2085 -760.5,-0.049 z m 760.4305,-122.2584 c 11.0465,-3.3687 19.6078,-8.4385 27.0695,-16.0301 8.1292,-8.2706 12.7512,-16.374 15.5246,-27.2178 1.941,-7.5893 1.9754,-12.0179 1.9754,-254.064 V 908.87907 H 785.49999 361.5 v 246.77003 c 0,246.5106 0,246.778 2.0708,254.2429 3.0219,10.9049 7.4559,18.5639 15.3988,26.5991 10.0271,10.1435 21.3667,15.6195 36.0304,17.3992 3.3,0.4005 172.05,0.6654 374.99999,0.5887 352.89851,-0.1335 369.25881,-0.2185 374.93051,-1.9481 z M 484.5,1272.379 v -60.5 h 212 211.99999 v 60.5 60.5 H 696.5 484.5 Z m 0,-181.4984 v -61.0016 h 303.00774 303.00776 l -0.2578,60.75 -0.2577,60.75 -302.75001,0.2516 L 484.5,1151.8823 Z M 1325,784.89327 c 31.6895,-8.15891 56.9697,-33.39686 65.6238,-65.5142 3.1069,-11.53033 3.1216,-33.62339 0.03,-45 -5.6809,-20.90451 -19.5039,-40.70065 -36.6642,-52.50722 -6.8764,-4.73109 -20.1289,-10.73905 -28.9895,-13.14227 -6.4847,-1.75883 -10.7464,-2.1698 -22.5,-2.1698 -16.89,0 -25.1282,1.77148 -38.9358,8.3725 -19.3929,9.2712 -34.0767,24.02683 -43.1255,43.33653 -6.5678,14.01529 -8.2267,21.80116 -8.2267,38.61026 0,17.55616 1.8314,25.5388 9.2918,40.5 13.2861,26.64441 37.9649,44.50121 68.4962,49.56178 7.9198,1.31271 26.0735,0.25068 35,-2.04758 z m -115.5,-455.8041 c 0,-136.64712 -0.1882,-156.52225 -1.5316,-161.75 -5.6925,-22.15201 -22.7145,-39.22472 -44.4684,-44.60086 -8.2051,-2.02777 -747.7949,-2.02777 -756,0 -17.2642,4.26659 -32.6984,16.75192 -39.9098,32.28473 -2.1337,4.59582 -4.3769,10.74068 -4.9849,13.65525 -0.7796,3.73784 -1.1053,51.10175 -1.1053,160.75 V 484.87907 H 785.49999 1209.5 Z"
     id="path121"
     inkscape:connector-curvature="0" />
</svg>
