<?xml version="1.0" encoding="UTF-8" standalone="no"?>
<!-- Created with Inkscape (http://www.inkscape.org/) -->

<svg
   xmlns:dc="http://purl.org/dc/elements/1.1/"
   xmlns:cc="http://creativecommons.org/ns#"
   xmlns:rdf="http://www.w3.org/1999/02/22-rdf-syntax-ns#"
   xmlns:svg="http://www.w3.org/2000/svg"
   xmlns="http://www.w3.org/2000/svg"
   xmlns:sodipodi="http://sodipodi.sourceforge.net/DTD/sodipodi-0.dtd"
   xmlns:inkscape="http://www.inkscape.org/namespaces/inkscape"
   version="1.1"
   id="svg90"
   width="95.984291"
   height="95.97998"
   viewBox="0 0 95.984291 95.97998"
   sodipodi:docname="mnu-icon-2.svg"
   inkscape:version="0.92.4 (unknown)">
  <path
     d="m 61.333365,95.863412 c -1.2236,-0.449192 -2.0871,-1.941024 -2.29475,-3.964544 -0.11602,-1.130592 -0.11602,-86.6959685 0,-87.8265615 0.23827,-2.3219221 1.37151,-3.94992047 2.83251,-4.06914927 0.31596,-0.025785 0.92893,0.1009814 2.80434,0.5799657 1.32,0.3371297 3.156,0.80605357 4.08,1.04205307 0.924,0.2359995 4.308003,1.0975116 7.520003,1.9144714 3.212,0.8169597 8.467576,2.1538691 11.679048,2.9709095 3.394296,0.8635514 5.947336,1.5524536 6.097688,1.6453736 0.847776,0.5239568 1.558536,1.9503205 1.8286,3.6696575 0.1048,0.66724 0.116272,5.124597 0.094,36.52 -0.02343,33.020216 -0.03556,35.79984 -0.158312,36.28 -0.340472,1.33184 -0.786704,2.256112 -1.371624,2.841032 -0.228416,0.228416 -0.539976,0.45428 -0.692352,0.501912 -0.152376,0.04763 -2.077048,0.54204 -4.277048,1.098696 -2.2,0.556656 -6.61,1.676888 -9.8,2.489416 -15.103343,3.846992 -17.433993,4.42856 -17.726333,4.423304 -0.17252,-0.0031 -0.44961,-0.05554 -0.61577,-0.116536 z M 72.645034,52.447206 c 0.764163,-0.280208 1.244585,-0.583946 1.796346,-1.135706 0.844009,-0.84401 1.294641,-1.836207 1.371806,-3.020432 0.05814,-0.892206 -0.06668,-1.533964 -0.456308,-2.346244 -0.546751,-1.139827 -1.449266,-1.949398 -2.702086,-2.423816 -0.464433,-0.175872 -0.672627,-0.205008 -1.499327,-0.209826 -1.05447,-0.0061 -1.43669,0.08353 -2.31955,0.544184 -0.56679,0.295736 -1.44205,1.130971 -1.76119,1.680656 -0.82962,1.428895 -0.88819,3.131939 -0.15785,4.589852 0.62445,1.246526 1.86945,2.197103 3.27859,2.503244 0.58656,0.127432 1.86483,0.0325 2.449569,-0.181912 z m -26.061679,38.73959 c -1.91069,-0.50088 -3.35923,-1.661216 -4.14613,-3.321208 -0.54675,-1.153392 -0.52176,-0.643016 -0.52176,-10.652789 v -9.042566 l 3.6875,-3.732323 c 2.02812,-2.052777 3.72012,-3.732322 3.76,-3.732322 0.043,0 0.0725,4.702934 0.0725,11.56 v 11.56 h 3.04 3.04 v 3.76 3.76 l -4.18,-0.0044 c -3.82152,-0.004 -4.22907,-0.01726 -4.75212,-0.154384 z m -18.03438,-16.86787 c -1.01391,-0.264674 -1.98336,-1.046109 -2.42977,-1.958532 -0.33764,-0.690123 -0.48189,-1.564532 -0.37054,-2.24621 0.11097,-0.679357 0.43104,-1.395711 0.84384,-1.888596 0.16583,-0.198 3.85234,-3.924 8.19224,-8.28 l 7.89072,-7.92 -19.8,-0.04 -19.7999997,-0.04 -0.46659,-0.176263 c -1.30171,-0.491738 -2.15669002,-1.423896 -2.49407002,-2.719201 -0.50921,-1.954994 0.72508,-4.021763 2.72066002,-4.555628 0.3288,-0.08796 3.91,-0.107178 20.1194597,-0.107958 l 19.71946,-9.5e-4 -8.05005,-8.06 c -5.05648,-5.062723 -8.12559,-8.193874 -8.25317,-8.42 -0.6565,-1.163617 -0.63397,-2.695702 0.057,-3.874729 0.29164,-0.497643 1.02549,-1.144745 1.6066,-1.416677 1.06795,-0.499757 2.23554,-0.489991 3.31555,0.02773 0.48754,0.233711 1.34475,1.069055 11.96288,11.657712 6.29074,6.273279 11.55528,11.564659 11.69898,11.758621 0.36686,0.495159 0.59156,1.145104 0.6417,1.856148 0.051,0.723418 -0.0597,1.268028 -0.40478,1.991193 -0.2283,0.478426 -0.90708,1.181978 -8.49016,8.8 -4.53311,4.554 -9.72847,9.776075 -11.54524,11.604611 -2.23297,2.247443 -3.44933,3.413172 -3.75422,3.59795 -0.53329,0.323208 -1.33117,0.548216 -1.94399,0.548216 -0.242,0 -0.67692,-0.06185 -0.9665,-0.137439 z m 17.06617,-42.273657 -3.69968,-3.700319 v -8.95457 c 0,-9.9979279 -0.0309,-9.4196935 0.56879,-10.6514023 0.77145,-1.5845649 2.27524,-2.7785573 4.08641,-3.2445686 0.62649,-0.1611963 0.90337,-0.1731652 4.8048,-0.207706 l 4.14,-0.036653 v 3.8077692 3.8077687 h -3.04 -3.04 v 11.44 c 0,6.292 -0.0271,11.44 -0.0603,11.44 -0.0332,0 -1.72517,-1.665144 -3.76,-3.700319 z"
     id="path100"
     inkscape:connector-curvature="0" />
</svg>
